<svg xmlns="http://www.w3.org/2000/svg"  viewBox="0 0 50 50" width="50px" height="50px"><path d="M 11 2 C 10.449219 2 10 2.449219 10 3 C 10 15.277344 14.617188 20.929688 19.71875 24.65625 C 20.980469 23.855469 22.25 23.121094 23.5 22.40625 C 23.855469 22.203125 24.210938 21.984375 24.5625 21.78125 C 19.316406 18.382813 15 13.835938 15 3 C 15 2.449219 14.550781 2 14 2 Z M 39 2 C 38.445313 2 38 2.449219 38 3 C 38 3.347656 37.976563 3.664063 37.96875 4 L 18 4 C 17.96875 4 17.9375 4 17.90625 4 C 17.875 4 17.84375 4 17.8125 4 C 17.261719 4.050781 16.855469 4.542969 16.90625 5.09375 C 16.957031 5.644531 17.449219 6.050781 18 6 L 37.875 6 C 37.816406 6.695313 37.753906 7.363281 37.65625 8 L 18.59375 8 C 18.5625 8 18.53125 8 18.5 8 C 18.46875 8 18.4375 8 18.40625 8 C 17.855469 8.050781 17.449219 8.542969 17.5 9.09375 C 17.550781 9.644531 18.042969 10.050781 18.59375 10 L 37.25 10 C 37.082031 10.707031 36.878906 11.367188 36.65625 12 L 20 12 C 19.96875 12 19.9375 12 19.90625 12 C 19.875 12 19.84375 12 19.8125 12 C 19.261719 12.050781 18.855469 12.542969 18.90625 13.09375 C 18.957031 13.644531 19.449219 14.050781 20 14 L 35.8125 14 C 35.460938 14.714844 35.078125 15.382813 34.65625 16 C 34.605469 15.996094 34.550781 15.996094 34.5 16 L 22.40625 16 C 22.375 16 22.34375 16 22.3125 16 C 22.28125 16 22.25 16 22.21875 16 C 21.667969 16.050781 21.261719 16.542969 21.3125 17.09375 C 21.363281 17.644531 21.855469 18.050781 22.40625 18 L 33.0625 18 C 32.394531 18.71875 31.691406 19.390625 30.9375 20 L 27 20 C 26.96875 20 26.9375 20 26.90625 20 C 26.875 20 26.84375 20 26.8125 20 C 26.261719 20.050781 25.855469 20.542969 25.90625 21.09375 C 25.957031 21.644531 26.449219 22.050781 27 22 L 28.0625 22 C 26.90625 22.734375 25.714844 23.429688 24.5 24.125 C 17.371094 28.199219 10 32.421875 10 47 C 10 47.554688 10.449219 48 11 48 L 14 48 C 14.550781 48 15 47.554688 15 47 C 15 35.691406 20.828125 32.277344 27.5625 28.3125 C 34.804688 24.046875 43 19.207031 43 3 C 43 2.449219 42.554688 2 42 2 Z M 33.28125 27.09375 C 31.699219 28.183594 30.085938 29.132813 28.5625 30.03125 C 28.5 30.066406 28.4375 30.089844 28.375 30.125 L 29.34375 30.71875 C 29.949219 31.128906 30.507813 31.566406 31.0625 32 L 24.5 32 C 24.46875 32 24.4375 32 24.40625 32 C 24.375 32 24.34375 32 24.3125 32 C 23.761719 32.050781 23.355469 32.542969 23.40625 33.09375 C 23.457031 33.644531 23.949219 34.050781 24.5 34 L 33.3125 34 C 33.921875 34.628906 34.496094 35.28125 35 36 L 20.59375 36 C 20.5625 36 20.53125 36 20.5 36 C 20.46875 36 20.4375 36 20.40625 36 C 19.855469 36.050781 19.449219 36.542969 19.5 37.09375 C 19.550781 37.644531 20.042969 38.050781 20.59375 38 L 36.1875 38 C 36.496094 38.625 36.765625 39.296875 37 40 L 18.59375 40 C 18.5625 40 18.53125 40 18.5 40 C 18.46875 40 18.4375 40 18.40625 40 C 17.855469 40.050781 17.449219 40.542969 17.5 41.09375 C 17.550781 41.644531 18.042969 42.050781 18.59375 42 L 37.53125 42 C 37.664063 42.636719 37.765625 43.296875 37.84375 44 L 18 44 C 17.96875 44 17.9375 44 17.90625 44 C 17.875 44 17.84375 44 17.8125 44 C 17.261719 44.050781 16.855469 44.542969 16.90625 45.09375 C 16.957031 45.644531 17.449219 46.050781 18 46 L 37.96875 46 C 37.980469 46.332031 38 46.65625 38 47 C 38 47.554688 38.445313 48 39 48 L 42 48 C 42.554688 48 43 47.554688 43 47 C 43 35.4375 38.246094 30.546875 33.53125 27.25 Z"/></svg>