<?xml version="1.0"?><svg xmlns="http://www.w3.org/2000/svg"  viewBox="0 0 30 30" width="30px" height="30px">    <path d="M 15 3 C 7.82 3 2 7.925 2 14 C 2 17.368 3.7933281 20.378484 6.6113281 22.396484 C 6.6832805 23.932468 6.4452784 26.053382 4.3261719 27.03125 A 0.5 0.5 0 0 0 4.3222656 27.033203 A 0.5 0.5 0 0 0 4 27.5 A 0.5 0.5 0 0 0 4.5 28 A 0.5 0.5 0 0 0 4.5429688 27.998047 C 6.9769949 27.982445 9.0432734 26.667034 10.46875 25.277344 C 10.92075 24.836344 11.550875 24.619328 12.171875 24.736328 C 13.081875 24.909328 14.028 25 15 25 C 22.18 25 28 20.075 28 14 C 28 7.925 22.18 3 15 3 z M 18.5 8 L 19.5 8 C 19.776 8 20 8.224 20 8.5 L 20 19 L 18 19 L 18 8.5 C 18 8.224 18.224 8 18.5 8 z M 10.5 10 L 11.5 10 C 11.776 10 12 10.224 12 10.5 L 12 19 L 10 19 L 10 10.5 C 10 10.224 10.224 10 10.5 10 z M 14.5 12 L 15.5 12 C 15.776 12 16 12.224 16 12.5 L 16 19 L 14 19 L 14 12.5 C 14 12.224 14.224 12 14.5 12 z"/></svg>