<?xml version="1.0"?><svg xmlns="http://www.w3.org/2000/svg"  viewBox="0 0 24 24" width="24px" height="24px">    <path d="M 12 0.9921875 L 2.9902344 6.2460938 C 2.3792344 6.6030938 2 7.2666094 2 7.9746094 L 2 18 C 2 19.103 2.897 20 4 20 L 20 20 C 21.103 20 22 19.103 22 18 L 22 7.9746094 C 22 7.2666094 21.619812 6.6040937 21.007812 6.2460938 L 12 0.9921875 z M 12 3.4648438 C 12.174125 3.4648438 12.347906 3.5105625 12.503906 3.6015625 L 19.892578 7.9121094 L 12.529297 12.494141 C 12.206297 12.695141 11.795656 12.695141 11.472656 12.494141 L 4.1074219 7.9121094 L 11.496094 3.6015625 C 11.651594 3.5105625 11.825875 3.4648438 12 3.4648438 z M 12 5 C 11.448 5 11 5.448 11 6 L 11 7 L 10 7 C 9.448 7 9 7.448 9 8 C 9 8.552 9.448 9 10 9 L 11 9 L 11 10 C 11 10.552 11.448 11 12 11 C 12.552 11 13 10.552 13 10 L 13 9 L 14 9 C 14.552 9 15 8.552 15 8 C 15 7.448 14.552 7 14 7 L 13 7 L 13 6 C 13 5.448 12.552 5 12 5 z"/></svg>