<svg xmlns="http://www.w3.org/2000/svg"  viewBox="0 0 24 24" width="24px" height="24px"><path d="M 16.083984 2.9257812 L 16.791016 4.4277344 C 16.956494 4.7792255 17 5.2551919 17 5.9121094 C 17 7.0091002 16.612011 7.9199529 15.927734 8.5449219 C 14.892974 7.5894479 13.52626 7 12 7 C 9.8329215 7 8.0697997 8.2697109 7.015625 10.001953 C 7.0073806 10.001879 7.0084462 10 7 10 C 4.2504839 10 2 12.250484 2 15 C 2 17.749516 4.2504839 20 7 20 L 17 20 C 19.197334 20 21 18.197334 21 16 C 21 14.987688 20.603304 14.087299 19.96875 13.400391 C 21.761908 12.489052 23 10.630412 23 8.4902344 C 23 5.5422228 20.653641 3.134602 17.740234 3.0019531 L 16.083984 2.9257812 z M 18.894531 5.296875 C 20.135549 5.8319206 21 7.0428263 21 8.4902344 C 21 10.339735 19.593178 11.820365 17.785156 11.970703 C 17.667339 11.316072 17.461025 10.69108 17.15625 10.125 C 18.345738 9.0952854 19 7.5553973 19 5.9121094 C 19 5.7233982 18.903313 5.4966407 18.894531 5.296875 z M 12 9 C 14.220375 9 16 10.779625 16 13 L 16 14 L 17 14 C 18.116666 14 19 14.883334 19 16 C 19 17.116666 18.116666 18 17 18 L 7 18 C 5.3315161 18 4 16.668484 4 15 C 4 13.331516 5.3315161 12 7 12 C 7.00561 12 7.099104 12.015246 7.3027344 12.035156 L 8.03125 12.107422 L 8.3203125 11.433594 C 8.9301652 10.005275 10.338324 9 12 9 z"/></svg>