<svg xmlns="http://www.w3.org/2000/svg"  viewBox="0 0 48 48" width="48px" height="48px"><path d="M 21.5 6 A 1.50015 1.50015 0 1 0 21.5 9 L 32.5 9 A 1.50015 1.50015 0 1 0 32.5 6 L 21.5 6 z M 19.984375 11 C 17.981375 11 16.097641 11.780266 14.681641 13.197266 L 10.878906 17 L 8.5 17 C 7.671 17 7 17.671 7 18.5 L 7 33.5 C 7 34.329 7.671 35 8.5 35 L 10.796875 35 L 14.148438 39.021484 C 15.196438 40.278484 16.735047 41 18.373047 41 L 30.015625 41 C 32.018625 41 33.902359 40.219734 35.318359 38.802734 L 39.388672 34.732422 C 40.427672 33.693422 41 32.31275 41 30.84375 L 41 16.5 C 41 13.467 38.533 11 35.5 11 L 19.984375 11 z M 25.451172 18 L 25.46875 18 C 26.01575 18.006 26.453125 18.451 26.453125 19 C 26.453125 19.025 26.453172 19.048266 26.451172 19.072266 L 26.441406 23.785156 L 30.183594 24.554688 C 30.516594 24.622688 30.791063 24.856828 30.914062 25.173828 C 31.037062 25.490828 30.992016 25.848047 30.791016 26.123047 L 25.339844 33.589844 C 25.147844 33.851844 24.84425 34 24.53125 34 C 24.42725 34 24.322703 33.983219 24.220703 33.949219 C 23.808703 33.814219 23.53025 33.431047 23.53125 32.998047 L 23.539062 28.214844 L 19.798828 27.445312 C 19.465828 27.377312 19.189406 27.143172 19.066406 26.826172 C 18.943406 26.509172 18.991406 26.151953 19.191406 25.876953 L 24.636719 18.419922 C 24.653719 18.396922 24.670453 18.373563 24.689453 18.351562 C 24.743453 18.288563 24.804141 18.232547 24.869141 18.185547 C 25.013141 18.082547 25.185094 18.017906 25.371094 18.003906 C 25.398094 18.001906 25.425172 18 25.451172 18 z M 44.476562 18.978516 A 1.50015 1.50015 0 0 0 43 20.5 L 43 30.5 A 1.50015 1.50015 0 1 0 46 30.5 L 46 20.5 A 1.50015 1.50015 0 0 0 44.476562 18.978516 z M 3.4765625 19.978516 A 1.50015 1.50015 0 0 0 2 21.5 L 2 30.5 A 1.50015 1.50015 0 1 0 5 30.5 L 5 21.5 A 1.50015 1.50015 0 0 0 3.4765625 19.978516 z"/></svg>