<svg xmlns="http://www.w3.org/2000/svg"  viewBox="0 0 50 50" width="50px" height="50px"><path d="M 10.90625 1.96875 C 10.863281 1.976563 10.820313 1.988281 10.78125 2 C 10.316406 2.105469 9.988281 2.523438 10 3 C 10 9.941406 11.492188 14.867188 13.84375 18.53125 C 15.929688 21.785156 18.675781 24.027344 21.5 25.875 C 19 27.40625 16.574219 29.171875 14.59375 31.625 C 11.820313 35.058594 10 39.832031 10 47 C 9.996094 47.359375 10.183594 47.695313 10.496094 47.878906 C 10.808594 48.058594 11.191406 48.058594 11.503906 47.878906 C 11.816406 47.695313 12.003906 47.359375 12 47 C 12 40.167969 13.679688 35.941406 16.15625 32.875 C 18.632813 29.808594 22 27.875 25.5 25.875 C 29 23.875 32.632813 21.808594 35.40625 18.375 C 36.527344 16.984375 37.464844 15.367188 38.21875 13.46875 C 38.246094 13.410156 38.265625 13.34375 38.28125 13.28125 C 39.34375 10.523438 40 7.171875 40 3 C 40.007813 2.691406 39.871094 2.398438 39.632813 2.203125 C 39.398438 2.007813 39.082031 1.933594 38.78125 2 C 38.316406 2.105469 37.988281 2.523438 38 3 C 38 3.351563 37.976563 3.664063 37.96875 4 L 18 4 C 17.96875 4 17.9375 4 17.90625 4 C 17.875 4 17.84375 4 17.8125 4 C 17.261719 4.050781 16.855469 4.542969 16.90625 5.09375 C 16.957031 5.644531 17.449219 6.050781 18 6 L 37.875 6 C 37.816406 6.695313 37.722656 7.367188 37.625 8 L 18.59375 8 C 18.5625 8 18.53125 8 18.5 8 C 18.46875 8 18.4375 8 18.40625 8 C 17.855469 8.050781 17.449219 8.542969 17.5 9.09375 C 17.550781 9.644531 18.042969 10.050781 18.59375 10 L 37.25 10 C 37.078125 10.707031 36.878906 11.371094 36.65625 12 L 20 12 C 19.96875 12 19.9375 12 19.90625 12 C 19.875 12 19.84375 12 19.8125 12 C 19.261719 12.050781 18.855469 12.542969 18.90625 13.09375 C 18.957031 13.644531 19.449219 14.050781 20 14 L 35.8125 14 C 35.460938 14.714844 35.074219 15.382813 34.65625 16 C 34.605469 15.996094 34.550781 15.996094 34.5 16 L 22.40625 16 C 22.375 16 22.34375 16 22.3125 16 C 22.28125 16 22.25 16 22.21875 16 C 21.667969 16.050781 21.261719 16.542969 21.3125 17.09375 C 21.363281 17.644531 21.855469 18.050781 22.40625 18 L 33.09375 18 C 32.417969 18.730469 31.707031 19.382813 30.9375 20 L 27 20 C 26.96875 20 26.9375 20 26.90625 20 C 26.875 20 26.84375 20 26.8125 20 C 26.261719 20.050781 25.855469 20.542969 25.90625 21.09375 C 25.957031 21.644531 26.449219 22.050781 27 22 L 28.0625 22 C 27.546875 22.328125 27.03125 22.65625 26.5 22.96875 C 23.425781 21.15625 20.585938 19.210938 18.5 16.25 C 16.390625 13.257813 15 9.199219 15 3 C 15.011719 2.710938 14.894531 2.433594 14.6875 2.238281 C 14.476563 2.039063 14.191406 1.941406 13.90625 1.96875 C 13.863281 1.976563 13.820313 1.988281 13.78125 2 C 13.316406 2.105469 12.988281 2.523438 13 3 C 13 9.503906 14.511719 14.050781 16.875 17.40625 C 18.976563 20.386719 21.714844 22.371094 24.53125 24.09375 C 24.519531 24.101563 24.511719 24.117188 24.5 24.125 C 24.15625 24.320313 23.8125 24.519531 23.46875 24.71875 C 20.4375 22.828125 17.617188 20.6875 15.53125 17.4375 C 13.410156 14.128906 12 9.65625 12 3 C 12.011719 2.710938 11.894531 2.433594 11.6875 2.238281 C 11.476563 2.039063 11.191406 1.941406 10.90625 1.96875 Z M 41.90625 1.96875 C 41.863281 1.976563 41.820313 1.988281 41.78125 2 C 41.316406 2.105469 40.988281 2.523438 41 3 C 41 10.320313 39.304688 15.007813 36.8125 18.40625 C 34.320313 21.804688 30.980469 23.9375 27.5 26 C 24.019531 28.0625 20.398438 30.03125 17.625 33.15625 C 14.851563 36.28125 13 40.585938 13 47 C 12.996094 47.359375 13.183594 47.695313 13.496094 47.878906 C 13.808594 48.058594 14.191406 48.058594 14.503906 47.878906 C 14.816406 47.695313 15.003906 47.359375 15 47 C 15 40.960938 16.648438 37.285156 19.125 34.5 C 21.601563 31.714844 24.980469 29.835938 28.5 27.75 C 32.019531 25.664063 35.679688 23.355469 38.4375 19.59375 C 41.195313 15.832031 43 10.632813 43 3 C 43.011719 2.710938 42.894531 2.433594 42.6875 2.238281 C 42.476563 2.039063 42.191406 1.941406 41.90625 1.96875 Z M 32.8125 27.09375 C 32.414063 27.167969 32.097656 27.476563 32.015625 27.875 C 31.933594 28.273438 32.101563 28.679688 32.4375 28.90625 C 37.289063 32.304688 41 36.652344 41 47 C 40.996094 47.359375 41.183594 47.695313 41.496094 47.878906 C 41.808594 48.058594 42.191406 48.058594 42.503906 47.878906 C 42.816406 47.695313 43.003906 47.359375 43 47 C 43 36.148438 38.710938 30.882813 33.5625 27.28125 C 33.347656 27.121094 33.078125 27.054688 32.8125 27.09375 Z M 29.8125 28.875 C 29.769531 28.882813 29.726563 28.894531 29.6875 28.90625 C 29.292969 28.988281 28.988281 29.300781 28.914063 29.699219 C 28.835938 30.09375 29.007813 30.496094 29.34375 30.71875 C 29.953125 31.132813 30.554688 31.558594 31.125 32 L 24.5 32 C 24.46875 32 24.4375 32 24.40625 32 C 24.375 32 24.34375 32 24.3125 32 C 23.761719 32.050781 23.355469 32.542969 23.40625 33.09375 C 23.457031 33.644531 23.949219 34.050781 24.5 34 L 33.40625 34 C 34.003906 34.613281 34.5625 35.28125 35.0625 36 L 20.59375 36 C 20.5625 36 20.53125 36 20.5 36 C 20.46875 36 20.4375 36 20.40625 36 C 19.855469 36.050781 19.449219 36.542969 19.5 37.09375 C 19.550781 37.644531 20.042969 38.050781 20.59375 38 L 36.21875 38 C 36.519531 38.625 36.769531 39.285156 37 40 L 18.59375 40 C 18.5625 40 18.53125 40 18.5 40 C 18.46875 40 18.4375 40 18.40625 40 C 17.855469 40.050781 17.449219 40.542969 17.5 41.09375 C 17.550781 41.644531 18.042969 42.050781 18.59375 42 L 37.53125 42 C 37.660156 42.640625 37.769531 43.289063 37.84375 44 L 18 44 C 17.96875 44 17.9375 44 17.90625 44 C 17.875 44 17.84375 44 17.8125 44 C 17.261719 44.050781 16.855469 44.542969 16.90625 45.09375 C 16.957031 45.644531 17.449219 46.050781 18 46 L 37.96875 46 C 37.980469 46.328125 38 46.65625 38 47 C 37.996094 47.359375 38.183594 47.695313 38.496094 47.878906 C 38.808594 48.058594 39.191406 48.058594 39.503906 47.878906 C 39.816406 47.695313 40.003906 47.359375 40 47 C 40 46.300781 39.949219 45.648438 39.90625 45 C 39.910156 44.949219 39.910156 44.894531 39.90625 44.84375 C 39.90625 44.824219 39.90625 44.800781 39.90625 44.78125 C 39.90625 44.769531 39.90625 44.761719 39.90625 44.75 C 39.269531 36.5625 35.167969 32.257813 30.46875 29.0625 C 30.277344 28.925781 30.046875 28.859375 29.8125 28.875 Z"/></svg>