<svg xmlns="http://www.w3.org/2000/svg"  viewBox="0 0 48 48" width="48px" height="48px"><path d="M 21.5 6 A 1.50015 1.50015 0 1 0 21.5 9 L 32.5 9 A 1.50015 1.50015 0 1 0 32.5 6 L 21.5 6 z M 19.984375 11 C 17.996141 11 16.088296 11.789907 14.681641 13.195312 A 1.50015 1.50015 0 0 0 14.681641 13.197266 L 10.878906 17 L 8.5 17 A 1.50015 1.50015 0 0 0 7 18.5 L 7 33.5 A 1.50015 1.50015 0 0 0 8.5 35 L 10.796875 35 L 14.148438 39.021484 C 15.192971 40.274925 16.74207 41 18.373047 41 L 30.015625 41 C 32.003859 41 33.911704 40.210093 35.318359 38.804688 A 1.50015 1.50015 0 0 0 35.318359 38.802734 L 39.390625 34.732422 C 40.421582 33.701465 41.001953 32.301863 41.001953 30.84375 L 41.001953 16.5 C 41.000586 13.480593 38.519774 11 35.5 11 L 19.984375 11 z M 19.984375 14 L 35.5 14 C 36.898226 14 38.00132 15.101407 38.001953 16.5 L 38.001953 30.84375 C 38.001953 31.505637 37.736621 32.142285 37.267578 32.611328 L 33.197266 36.681641 C 32.351921 37.526234 31.209391 38 30.015625 38 L 18.373047 38 C 17.630023 38 16.928591 37.672123 16.453125 37.101562 L 12.652344 32.539062 A 1.50015 1.50015 0 0 0 11.5 32 L 10 32 L 10 20 L 11.5 20 A 1.50015 1.50015 0 0 0 12.560547 19.560547 L 16.802734 15.318359 C 17.648079 14.473766 18.790609 14 19.984375 14 z M 25.453125 18 C 25.426125 18 25.399047 18.001906 25.373047 18.003906 C 25.186047 18.018906 25.014094 18.082547 24.871094 18.185547 C 24.805094 18.232547 24.744406 18.288562 24.691406 18.351562 C 24.673406 18.373562 24.655672 18.395922 24.638672 18.419922 L 19.193359 25.876953 C 18.992359 26.151953 18.945359 26.509172 19.068359 26.826172 C 19.191359 27.143172 19.466781 27.377313 19.800781 27.445312 L 23.542969 28.214844 L 23.533203 32.998047 C 23.532203 33.431047 23.810656 33.815219 24.222656 33.949219 C 24.324656 33.983219 24.429203 34 24.533203 34 C 24.846203 34 25.149797 33.851844 25.341797 33.589844 L 30.792969 26.123047 C 30.991969 25.848047 31.039016 25.490828 30.916016 25.173828 C 30.793016 24.856828 30.517594 24.622687 30.183594 24.554688 L 26.443359 23.785156 L 26.451172 19.072266 C 26.453172 19.048266 26.455078 19.025 26.455078 19 C 26.455078 18.451 26.01575 18.006 25.46875 18 L 25.453125 18 z M 44.476562 18.978516 A 1.50015 1.50015 0 0 0 43 20.5 L 43 30.5 A 1.50015 1.50015 0 1 0 46 30.5 L 46 20.5 A 1.50015 1.50015 0 0 0 44.476562 18.978516 z M 3.4765625 19.978516 A 1.50015 1.50015 0 0 0 2 21.5 L 2 30.5 A 1.50015 1.50015 0 1 0 5 30.5 L 5 21.5 A 1.50015 1.50015 0 0 0 3.4765625 19.978516 z"/></svg>