<svg xmlns="http://www.w3.org/2000/svg" xmlns:xlink="http://www.w3.org/1999/xlink" viewBox="0,0,256,256" width="30px" height="30px" fill-rule="nonzero"><g fill="#000000" fill-rule="nonzero" stroke="none" stroke-width="1" stroke-linecap="butt" stroke-linejoin="miter" stroke-miterlimit="10" stroke-dasharray="" stroke-dashoffset="0" font-family="none" font-weight="none" font-size="none" text-anchor="none" style="mix-blend-mode: normal"><g transform="scale(8.53333,8.53333)"><path d="M3,15c0,-6.634 5.366,-12 12,-12c6.634,0 12,5.366 12,12c0,6.634 -5.366,12 -12,12c-6.634,0.037 -12,-5.367 -12,-12zM15,23.012c4.435,0 8.012,-3.578 8.012,-8.012c0,-4.434 -3.577,-8.013 -8.012,-8.013c-4.435,0 -8.012,3.578 -8.012,8.013c0,4.435 3.577,8.012 8.012,8.012zM18.988,15c0,2.199 -1.789,3.988 -3.988,3.988c-2.199,0 -3.988,-1.789 -3.988,-3.988c0,-2.199 1.789,-3.988 3.988,-3.988c2.199,0 3.988,1.789 3.988,3.988z"></path></g></g></svg>