<svg xmlns="http://www.w3.org/2000/svg"  viewBox="0 0 48 48" width="48px" height="48px"><path d="M 18.080078 3 L 18.080078 3.0117188 C 12.589361 3.043182 8.1074219 7.5120008 8.1074219 13 C 8.1074219 18.280936 12.288868 22.522482 17.494141 22.871094 A 1.50015 1.50015 0 0 0 18.080078 23 L 18.134766 23 L 18.134766 22.988281 C 23.62548 22.956819 28.107422 18.487999 28.107422 13 C 28.107422 7.5120008 23.625482 3.0431822 18.134766 3.0117188 L 18.134766 3 L 18.080078 3 z M 18.107422 6.0058594 C 21.994564 6.0213894 25.107422 9.1290724 25.107422 13 C 25.107422 16.870928 21.994564 19.97861 18.107422 19.994141 C 14.22028 19.978611 11.107422 16.870928 11.107422 13 C 11.107422 9.1290724 14.22028 6.0213899 18.107422 6.0058594 z M 37.482422 24 C 36.776422 24 36.112281 24.274438 35.613281 24.773438 L 24.773438 35.615234 C 23.742438 36.646234 23.742438 38.322516 24.773438 39.353516 L 30.646484 45.226562 C 31.145484 45.725563 31.809625 46 32.515625 46 C 33.221625 46 33.885766 45.725563 34.384766 45.226562 L 45.226562 34.384766 C 45.725563 33.885766 46 33.220625 46 32.515625 L 46 26.056641 C 46 24.922641 45.077359 24 43.943359 24 L 37.482422 24 z M 6.7226562 27 C 4.6706562 27 3 28.784516 3 30.978516 L 3 32.5 C 3 35.781 4.6953906 38.632344 7.7753906 40.527344 C 10.366391 42.122344 13.82 43 17.5 43 C 19.982 43 22.354547 42.591797 24.435547 41.841797 L 23.359375 40.767578 C 22.946375 40.355578 22.628391 39.873469 22.400391 39.355469 C 20.841391 39.785469 19.154 40 17.5 40 C 11.961 40 6 37.653 6 32.5 L 6 30.978516 C 6 30.447516 6.3316562 30 6.7226562 30 L 27.560547 30 L 30.054688 27.505859 C 29.524687 27.193859 28.924344 27 28.277344 27 L 6.7226562 27 z M 40.5 28 C 41.328 28 42 28.671 42 29.5 C 42 30.328 41.328 31 40.5 31 C 39.672 31 39 30.328 39 29.5 C 39 28.671 39.672 28 40.5 28 z"/></svg>