<?xml version="1.0"?><svg xmlns="http://www.w3.org/2000/svg"  viewBox="0 0 30 30" width="30px" height="30px">    <path d="M24.707,8.793l-6.5-6.5C18.019,2.105,17.765,2,17.5,2H7C5.895,2,5,2.895,5,4v22c0,1.105,0.895,2,2,2h16c1.105,0,2-0.895,2-2 V9.5C25,9.235,24.895,8.981,24.707,8.793z M21.707,16.707l-4,4C17.512,20.902,17.256,21,17,21s-0.512-0.098-0.707-0.293L13,17.414 l-3.293,3.293c-0.391,0.391-1.023,0.391-1.414,0s-0.391-1.023,0-1.414l4-4c0.391-0.391,1.023-0.391,1.414,0L17,18.586l3.293-3.293 c0.391-0.391,1.023-0.391,1.414,0S22.098,16.316,21.707,16.707z M18,10c-0.552,0-1-0.448-1-1V3.904L23.096,10H18z"/></svg>